<svg id="visual" viewBox="0 0 1920 1080" width="1920" height="1080" xmlns="http://www.w3.org/2000/svg" xmlns:xlink="http://www.w3.org/1999/xlink" version="1.1"><path d="M0 217L29.2 197.2C58.3 177.3 116.7 137.7 174.8 148.5C233 159.3 291 220.7 349.2 247.7C407.3 274.7 465.7 267.3 523.8 265.5C582 263.7 640 267.3 698.2 253C756.3 238.7 814.7 206.3 872.8 179.3C931 152.3 989 130.7 1047.2 118C1105.3 105.3 1163.7 101.7 1221.8 103.5C1280 105.3 1338 112.7 1396.2 127.2C1454.3 141.7 1512.7 163.3 1570.8 159.7C1629 156 1687 127 1745.2 141.3C1803.3 155.7 1861.7 213.3 1890.8 242.2L1920 271L1920 0L1890.8 0C1861.7 0 1803.3 0 1745.2 0C1687 0 1629 0 1570.8 0C1512.7 0 1454.3 0 1396.2 0C1338 0 1280 0 1221.8 0C1163.7 0 1105.3 0 1047.2 0C989 0 931 0 872.8 0C814.7 0 756.3 0 698.2 0C640 0 582 0 523.8 0C465.7 0 407.3 0 349.2 0C291 0 233 0 174.8 0C116.7 0 58.3 0 29.2 0L0 0Z" fill="#ffa35e"></path><path d="M0 347L29.2 332.5C58.3 318 116.7 289 174.8 303.3C233 317.7 291 375.3 349.2 386.2C407.3 397 465.7 361 523.8 348.3C582 335.7 640 346.3 698.2 344.5C756.3 342.7 814.7 328.3 872.8 308.7C931 289 989 264 1047.2 253.2C1105.3 242.3 1163.7 245.7 1221.8 236.7C1280 227.7 1338 206.3 1396.2 226.2C1454.3 246 1512.7 307 1570.8 323.2C1629 339.3 1687 310.7 1745.2 308.8C1803.3 307 1861.7 332 1890.8 344.5L1920 357L1920 269L1890.8 240.2C1861.7 211.3 1803.3 153.7 1745.2 139.3C1687 125 1629 154 1570.8 157.7C1512.7 161.3 1454.3 139.7 1396.2 125.2C1338 110.7 1280 103.3 1221.8 101.5C1163.7 99.7 1105.3 103.3 1047.2 116C989 128.7 931 150.3 872.8 177.3C814.7 204.3 756.3 236.7 698.2 251C640 265.3 582 261.7 523.8 263.5C465.7 265.3 407.3 272.7 349.2 245.7C291 218.7 233 157.3 174.8 146.5C116.7 135.7 58.3 175.3 29.2 195.2L0 215Z" fill="#fc8e3b"></path><path d="M0 573L29.2 547.8C58.3 522.7 116.7 472.3 174.8 461.7C233 451 291 480 349.2 499.8C407.3 519.7 465.7 530.3 523.8 519.5C582 508.7 640 476.3 698.2 463.7C756.3 451 814.7 458 872.8 456.2C931 454.3 989 443.7 1047.2 424C1105.3 404.3 1163.7 375.7 1221.8 368.5C1280 361.3 1338 375.7 1396.2 413.3C1454.3 451 1512.7 512 1570.8 513.8C1629 515.7 1687 458.3 1745.2 460.2C1803.3 462 1861.7 523 1890.8 553.5L1920 584L1920 355L1890.8 342.5C1861.7 330 1803.3 305 1745.2 306.8C1687 308.7 1629 337.3 1570.8 321.2C1512.7 305 1454.3 244 1396.2 224.2C1338 204.3 1280 225.7 1221.8 234.7C1163.7 243.7 1105.3 240.3 1047.2 251.2C989 262 931 287 872.8 306.7C814.7 326.3 756.3 340.7 698.2 342.5C640 344.3 582 333.7 523.8 346.3C465.7 359 407.3 395 349.2 384.2C291 373.3 233 315.7 174.8 301.3C116.7 287 58.3 316 29.2 330.5L0 345Z" fill="#f7770f"></path><path d="M0 876L29.2 876C58.3 876 116.7 876 174.8 859.8C233 843.7 291 811.3 349.2 791.5C407.3 771.7 465.7 764.3 523.8 771.5C582 778.7 640 800.3 698.2 827.3C756.3 854.3 814.7 886.7 872.8 870.5C931 854.3 989 789.7 1047.2 742.8C1105.3 696 1163.7 667 1221.8 688.5C1280 710 1338 782 1396.2 803.7C1454.3 825.3 1512.7 796.7 1570.8 784.2C1629 771.7 1687 775.3 1745.2 798.7C1803.3 822 1861.7 865 1890.8 886.5L1920 908L1920 582L1890.8 551.5C1861.7 521 1803.3 460 1745.2 458.2C1687 456.3 1629 513.7 1570.8 511.8C1512.7 510 1454.3 449 1396.2 411.3C1338 373.7 1280 359.3 1221.8 366.5C1163.7 373.7 1105.3 402.3 1047.2 422C989 441.7 931 452.3 872.8 454.2C814.7 456 756.3 449 698.2 461.7C640 474.3 582 506.7 523.8 517.5C465.7 528.3 407.3 517.7 349.2 497.8C291 478 233 449 174.8 459.7C116.7 470.3 58.3 520.7 29.2 545.8L0 571Z" fill="#d5670f"></path><path d="M0 1081L29.2 1081C58.3 1081 116.7 1081 174.8 1081C233 1081 291 1081 349.2 1081C407.3 1081 465.7 1081 523.8 1081C582 1081 640 1081 698.2 1081C756.3 1081 814.7 1081 872.8 1081C931 1081 989 1081 1047.2 1081C1105.3 1081 1163.7 1081 1221.8 1081C1280 1081 1338 1081 1396.2 1081C1454.3 1081 1512.7 1081 1570.8 1081C1629 1081 1687 1081 1745.2 1081C1803.3 1081 1861.7 1081 1890.8 1081L1920 1081L1920 906L1890.8 884.5C1861.7 863 1803.3 820 1745.2 796.7C1687 773.3 1629 769.7 1570.8 782.2C1512.7 794.7 1454.3 823.3 1396.2 801.7C1338 780 1280 708 1221.8 686.5C1163.7 665 1105.3 694 1047.2 740.8C989 787.7 931 852.3 872.8 868.5C814.7 884.7 756.3 852.3 698.2 825.3C640 798.3 582 776.7 523.8 769.5C465.7 762.3 407.3 769.7 349.2 789.5C291 809.3 233 841.7 174.8 857.8C116.7 874 58.3 874 29.2 874L0 874Z" fill="#b5580e"></path></svg>